<?xml version="1.0" standalone="no"?>
<!DOCTYPE svg PUBLIC "-//W3C//DTD SVG 20010904//EN"
 "http://www.w3.org/TR/2001/REC-SVG-20010904/DTD/svg10.dtd">
<svg version="1.0" xmlns="http://www.w3.org/2000/svg"
 width="1200.000000pt" height="1200.000000pt" viewBox="0 0 1200.000000 1200.000000"
 preserveAspectRatio="xMidYMid meet">

<g transform="translate(0.000000,1200.000000) scale(0.100000,-0.100000)"
fill="#000000" stroke="none">
<path d="M5752 11239 c-1201 -52 -2386 -540 -3267 -1346 -506 -463 -885 -961
-1178 -1548 -488 -977 -656 -2050 -492 -3145 124 -832 471 -1658 985 -2345
418 -558 985 -1060 1589 -1405 662 -379 1328 -590 2136 -676 195 -21 704 -24
900 -5 728 69 1313 234 1930 546 540 273 958 577 1377 1001 313 318 541 612
781 1009 97 161 264 494 340 679 375 913 486 1957 311 2921 -159 874 -527
1681 -1078 2365 -223 278 -546 599 -826 821 -773 613 -1706 996 -2690 1104
-126 14 -547 37 -615 33 -16 0 -108 -4 -203 -9z m674 -229 c433 -40 853 -129
1214 -257 647 -229 1208 -559 1701 -999 141 -126 399 -389 500 -509 665 -793
1067 -1750 1163 -2767 67 -704 -13 -1403 -238 -2078 -77 -233 -153 -412 -281
-665 -255 -505 -523 -875 -929 -1280 -246 -246 -403 -380 -648 -555 -865 -618
-1952 -954 -2995 -926 -607 17 -1136 116 -1667 313 -1000 371 -1872 1069
-2458 1968 -1004 1540 -1087 3510 -215 5130 155 289 339 559 567 835 122 148
493 522 635 639 523 433 1127 760 1761 951 410 124 740 181 1254 214 92 6 520
-4 636 -14z"/>
<path d="M5840 10943 c-467 -14 -948 -100 -1411 -253 -1215 -402 -2255 -1297
-2832 -2438 -146 -289 -226 -482 -313 -757 -233 -735 -289 -1526 -164 -2303
108 -669 368 -1335 745 -1907 482 -731 1131 -1310 1913 -1704 231 -116 404
-188 637 -266 476 -159 878 -233 1415 -260 146 -7 538 9 726 30 574 64 1099
219 1629 480 612 302 1130 703 1573 1220 371 433 666 930 868 1463 309 814
396 1728 248 2592 -175 1025 -684 1986 -1435 2714 -786 762 -1780 1231 -2879
1361 -119 14 -541 37 -605 33 -16 -1 -68 -3 -115 -5z m625 -238 c386 -41 695
-107 1045 -225 1058 -355 1959 -1081 2545 -2051 101 -167 272 -510 340 -684
314 -796 408 -1675 269 -2515 -109 -661 -353 -1280 -726 -1845 -281 -427 -689
-858 -1108 -1171 -616 -461 -1370 -778 -2115 -888 -1420 -211 -2824 212 -3885
1169 -304 274 -568 581 -782 910 -661 1013 -909 2200 -707 3395 137 819 491
1583 1033 2235 127 152 436 461 586 586 784 653 1742 1037 2745 1099 191 12
578 4 760 -15z"/>
<path d="M5675 10110 c-514 -41 -1030 -181 -1499 -405 l-119 -57 924 -924 924
-924 1917 0 c1055 0 1918 3 1918 8 0 20 -164 305 -255 442 -525 795 -1291
1376 -2197 1668 -276 89 -514 141 -818 178 -158 19 -629 27 -795 14z m608
-1540 c11 -22 21 -26 86 -32 40 -3 75 -8 77 -11 3 -2 -22 -29 -55 -58 l-59
-54 18 -82 c10 -46 15 -83 11 -83 -3 0 -33 18 -66 40 -33 22 -63 40 -68 40 -4
0 -36 -18 -71 -40 -35 -22 -66 -40 -69 -40 -3 0 3 37 13 83 l18 82 -60 55
c-59 52 -60 55 -37 61 13 4 47 7 75 8 28 1 56 7 62 14 6 6 23 43 38 82 l28 69
23 -54 c13 -30 29 -66 36 -80z m750 0 c11 -22 21 -26 86 -32 40 -3 75 -8 77
-11 3 -2 -22 -29 -55 -58 l-59 -54 18 -82 c10 -46 15 -83 11 -83 -3 0 -33 18
-66 40 -33 22 -63 40 -68 40 -4 0 -36 -18 -71 -40 -35 -22 -66 -40 -69 -40 -3
0 3 37 13 83 l18 82 -60 55 c-59 52 -60 55 -37 61 13 4 47 7 75 8 28 1 56 7
62 14 6 6 23 43 38 82 l28 69 23 -54 c13 -30 29 -66 36 -80z m750 0 c11 -22
21 -26 86 -32 40 -3 75 -8 77 -11 3 -2 -22 -29 -55 -58 l-59 -54 18 -82 c10
-46 15 -83 11 -83 -3 0 -33 18 -66 40 -33 22 -64 40 -69 40 -5 0 -37 -18 -72
-40 -35 -22 -65 -40 -68 -40 -2 0 4 37 14 83 l18 82 -60 55 c-59 52 -60 55
-37 61 13 4 47 7 75 8 28 1 56 7 62 14 6 6 23 43 38 82 l28 69 23 -54 c13 -30
29 -66 36 -80z m750 0 c11 -22 21 -26 86 -32 40 -3 75 -8 77 -11 3 -2 -22 -29
-55 -58 l-59 -54 18 -82 c10 -46 15 -83 11 -83 -3 0 -33 18 -66 40 -33 22 -63
40 -68 40 -4 0 -36 -18 -71 -40 -35 -22 -66 -40 -69 -40 -3 0 3 37 13 83 l18
82 -60 55 c-59 52 -60 55 -37 61 13 4 47 7 75 8 28 1 56 7 62 14 6 6 23 43 38
82 l28 69 23 -54 c13 -30 29 -66 36 -80z"/>
<path d="M3855 9536 c-11 -7 -44 -28 -73 -46 l-54 -33 829 -829 828 -828 130
0 130 0 -875 875 c-481 481 -879 875 -885 874 -5 0 -19 -6 -30 -13z"/>
<path d="M3505 9300 c-39 -28 -71 -54 -73 -58 -1 -4 321 -330 716 -725 l718
-718 127 3 127 3 -773 773 -772 772 -70 -50z"/>
<path d="M3210 9060 l-65 -59 600 -600 600 -601 130 0 130 0 -660 660 c-363
363 -662 660 -665 660 -3 0 -34 -27 -70 -60z"/>
<path d="M2950 8805 l-65 -65 470 -470 471 -471 127 3 127 3 -533 533 -532
532 -65 -65z"/>
<path d="M2714 8533 c-25 -32 -48 -64 -51 -71 -4 -9 114 -134 318 -338 l324
-324 130 0 130 0 -395 395 c-217 217 -398 395 -402 395 -4 0 -28 -26 -54 -57z"/>
<path d="M2493 8222 l-51 -79 172 -172 172 -172 127 3 127 3 -248 248 -249
249 -50 -80z"/>
<path d="M2300 7890 c-22 -44 -40 -82 -40 -85 0 -3 60 -5 132 -5 l133 0 -85
85 c-47 47 -88 85 -92 85 -4 0 -26 -36 -48 -80z"/>
<path d="M3585 7374 c-44 -8 -92 -18 -107 -22 l-28 -7 -4 -105 c-5 -127 -28
-252 -105 -583 -77 -326 -101 -453 -101 -533 l0 -64 60 0 c32 0 106 9 162 20
57 11 104 20 104 20 1 0 4 35 8 78 8 94 19 158 53 324 l26 126 37 17 c86 39
96 1 50 -191 -57 -234 -51 -339 22 -384 64 -39 194 -18 341 57 73 36 71 33 46
102 -8 21 -13 22 -47 16 -69 -14 -67 -15 -66 45 1 30 16 114 33 185 44 180 49
239 23 297 -11 26 -32 54 -47 64 -63 41 -167 33 -280 -21 -38 -18 -71 -33 -72
-32 0 1 9 49 23 107 53 234 77 435 58 484 -8 20 -77 20 -189 0z"/>
<path d="M7995 7379 c-27 -4 -76 -13 -109 -20 l-58 -12 6 -59 c13 -112 -18
-305 -119 -743 -57 -248 -68 -372 -36 -423 26 -41 91 -71 151 -72 84 0 228 49
294 101 l25 20 -21 43 -20 43 -42 -15 c-23 -9 -50 -13 -59 -9 -35 13 -29 50
107 702 42 199 62 365 52 418 l-7 37 -57 -1 c-31 -1 -79 -5 -107 -10z"/>
<path d="M2750 7334 c-248 -53 -446 -287 -499 -588 -15 -84 -13 -259 3 -337
85 -400 525 -482 855 -160 l43 43 -42 43 -43 44 -51 -39 c-77 -57 -134 -82
-201 -88 -163 -13 -233 118 -222 413 7 161 30 269 81 379 61 133 133 188 214
167 l39 -11 -18 -88 c-17 -82 -17 -88 -1 -101 47 -37 186 -81 258 -81 40 0 43
2 63 43 87 179 -25 332 -267 367 -88 13 -133 11 -212 -6z"/>
<path d="M6973 7340 c-51 -5 -140 -14 -198 -20 -97 -12 -106 -15 -111 -36 -5
-18 2 -33 24 -58 68 -78 67 -136 -8 -466 -73 -318 -127 -587 -131 -645 l-4
-50 95 2 c52 1 118 8 147 16 47 12 59 12 125 -5 93 -25 246 -34 322 -19 130
24 250 111 303 220 25 50 28 67 28 156 0 112 -15 153 -77 212 -34 33 -130 83
-160 83 -29 0 -29 17 -1 25 61 15 137 62 184 113 61 67 84 137 75 225 -21 203
-211 280 -613 247z m247 -145 c50 -53 33 -197 -35 -301 -35 -53 -82 -84 -130
-84 -23 0 -26 3 -22 23 17 70 67 331 67 350 0 32 7 37 55 37 31 0 47 -6 65
-25z m-62 -541 c45 -33 62 -79 62 -166 0 -186 -102 -304 -245 -283 -70 11 -71
13 -57 97 25 146 75 363 86 371 21 15 125 2 154 -19z"/>
<path d="M5149 7287 c-59 -32 -89 -77 -89 -137 0 -87 68 -150 163 -150 143 0
236 120 181 236 -34 71 -166 98 -255 51z"/>
<path d="M4797 6856 c-38 -14 -55 -26 -113 -78 l-30 -28 -13 51 -14 52 -126
-6 c-129 -6 -226 -21 -236 -38 -4 -5 6 -24 20 -43 49 -64 49 -83 4 -317 -22
-118 -43 -254 -46 -303 l-6 -89 129 6 c71 4 145 10 164 15 l35 8 6 84 c4 47
22 164 39 261 31 167 34 177 60 193 16 9 31 16 34 16 3 0 18 -18 32 -40 15
-22 34 -40 43 -40 31 0 116 48 154 85 33 34 37 42 31 74 -8 47 -37 113 -56
128 -24 20 -70 24 -111 9z"/>
<path d="M5741 6855 c-128 -29 -203 -106 -205 -210 -1 -68 25 -117 135 -255
105 -132 128 -173 113 -198 -23 -36 -48 -26 -76 32 -28 57 -79 120 -109 137
-26 13 -65 -8 -115 -63 -55 -60 -72 -103 -53 -137 56 -100 326 -145 471 -79
111 51 177 137 178 229 0 47 -45 154 -75 179 -12 10 -7 22 30 75 89 131 64
241 -64 284 -57 19 -161 22 -230 6z m217 -111 c36 -25 24 -92 -26 -137 -19
-17 -21 -17 -56 31 -20 27 -36 58 -36 68 0 48 71 71 118 38z"/>
<path d="M8615 6860 c-66 -4 -136 -13 -155 -20 -105 -39 -205 -142 -251 -258
-20 -49 -23 -76 -24 -187 0 -123 2 -133 28 -187 51 -104 143 -158 267 -158
140 0 262 73 351 211 35 54 74 149 84 201 5 24 14 39 26 43 60 17 55 25 55
-97 -1 -132 16 -193 69 -256 68 -78 173 -92 305 -38 35 14 66 24 68 21 2 -2 1
-21 -3 -42 -6 -38 -6 -38 -87 -61 -180 -50 -257 -108 -266 -201 -6 -70 16
-107 85 -138 76 -35 192 -30 276 11 181 88 297 322 356 721 29 190 44 360 37
400 -7 35 -7 35 -60 35 -29 0 -94 -7 -144 -16 -86 -15 -95 -14 -145 2 -67 23
-158 23 -227 0 -41 -15 -70 -35 -120 -85 -36 -36 -74 -78 -85 -93 -16 -23 -29
-28 -70 -30 l-49 -3 -8 55 c-11 73 -43 137 -79 155 -39 21 -92 24 -234 15z
m11 -200 c0 -54 5 -76 20 -97 31 -42 67 -64 112 -70 49 -7 50 -11 21 -88 -27
-72 -108 -162 -154 -171 -80 -15 -109 30 -108 171 1 142 58 323 103 325 3 0 5
-32 6 -70z m877 53 c5 -10 -40 -420 -48 -432 -3 -5 -22 -15 -42 -22 -34 -11
-38 -10 -60 15 -20 24 -23 37 -23 119 0 146 40 288 87 316 21 12 80 14 86 4z
m-110 -794 c-4 -12 -25 -41 -47 -65 -62 -65 -127 -71 -134 -12 -4 32 24 56 90
79 74 26 98 25 91 -2z"/>
<path d="M5098 6849 c-102 -9 -128 -16 -128 -34 0 -7 14 -39 30 -70 17 -31 30
-70 30 -85 0 -15 -18 -99 -40 -186 -50 -195 -59 -294 -33 -343 51 -97 175
-106 348 -26 107 50 109 53 94 104 -14 46 -14 46 -86 25 -17 -5 -25 -1 -33 18
-12 25 -3 74 55 318 27 112 32 223 13 265 -11 24 -15 25 -87 24 -42 -1 -115
-5 -163 -10z"/>
<path d="M7452 5297 l-43 -12 -4 -73 c-3 -39 -23 -160 -45 -268 -48 -236 -49
-255 -14 -283 15 -12 34 -21 43 -21 29 0 143 59 138 72 -5 14 -19 15 -54 4
-22 -7 -23 -4 -23 37 0 25 16 120 35 212 58 276 64 346 26 344 -9 0 -35 -6
-59 -12z"/>
<path d="M4063 5281 c-34 -3 -64 -9 -68 -13 -4 -4 0 -17 9 -30 24 -34 20 -95
-19 -283 -20 -93 -42 -200 -49 -237 l-14 -68 44 0 c75 0 90 11 98 72 11 84 87
401 100 417 18 23 96 53 121 47 42 -11 41 -34 -19 -321 -17 -79 -25 -142 -21
-162 13 -69 81 -78 170 -22 32 20 43 33 39 44 -4 10 -13 14 -23 9 -55 -22 -55
-22 -48 52 3 38 17 116 32 174 52 210 44 298 -30 319 -46 12 -90 0 -155 -44
-29 -19 -54 -35 -56 -35 -2 0 -4 13 -4 29 0 41 -10 61 -29 59 -9 0 -44 -4 -78
-7z"/>
<path d="M6868 5168 l-37 -10 -3 -61 c-3 -59 -4 -62 -30 -65 -22 -3 -28 -9
-28 -28 0 -21 3 -24 25 -18 14 3 25 4 25 2 0 -2 -11 -57 -25 -123 -31 -151
-31 -170 1 -201 21 -22 31 -25 62 -19 49 9 117 47 117 65 0 16 -3 16 -48 5
-26 -7 -27 -6 -27 33 0 36 23 181 36 224 3 12 18 18 47 20 30 2 43 8 45 21 3
14 -4 17 -36 17 l-40 0 5 75 6 75 -29 -1 c-16 -1 -46 -6 -66 -11z"/>
<path d="M7158 5168 l-37 -10 -3 -61 c-3 -59 -4 -62 -30 -65 -22 -3 -28 -9
-28 -28 0 -21 3 -24 25 -18 14 3 25 4 25 2 0 -2 -11 -57 -25 -123 -31 -151
-31 -170 1 -201 21 -22 31 -25 62 -19 49 9 117 47 117 65 0 16 -3 16 -48 5
-26 -7 -27 -6 -27 33 0 36 23 181 36 224 3 12 18 18 47 20 30 2 43 8 45 21 3
14 -4 17 -36 17 l-40 0 5 75 6 75 -29 -1 c-16 -1 -46 -6 -66 -11z"/>
<path d="M4680 5040 c-111 -20 -180 -109 -180 -232 0 -80 23 -126 75 -152 34
-17 45 -18 94 -8 61 13 131 54 131 77 0 19 1 19 -53 -5 -57 -25 -92 -18 -113
22 -18 35 -12 58 14 58 40 0 115 34 148 67 27 27 34 42 34 73 0 21 -3 46 -6
54 -13 33 -86 56 -144 46z m39 -62 c10 -28 -2 -84 -24 -108 -9 -10 -30 -23
-46 -29 -27 -9 -29 -8 -29 17 0 97 74 187 99 120z"/>
<path d="M4907 5040 c-48 -9 -52 -13 -32 -43 14 -22 15 -45 9 -169 l-7 -144
28 -22 c35 -27 57 -28 112 -1 76 37 151 152 172 263 14 75 0 110 -45 114 -37
4 -63 -29 -71 -87 -4 -29 0 -40 21 -60 28 -27 32 -50 15 -84 -21 -40 -72 -87
-96 -87 -29 0 -30 27 -7 153 9 48 13 103 10 122 -4 19 -8 35 -9 35 -1 0 -16 4
-32 8 -17 5 -47 5 -68 2z"/>
<path d="M5390 5040 c-111 -20 -180 -109 -180 -232 0 -80 23 -126 75 -152 34
-17 45 -18 94 -8 61 13 131 54 131 77 0 19 1 19 -53 -5 -57 -25 -92 -18 -113
22 -18 35 -12 58 14 58 40 0 115 34 148 67 27 27 34 42 34 73 0 21 -3 46 -6
54 -13 33 -86 56 -144 46z m39 -62 c10 -28 -2 -84 -24 -108 -9 -10 -30 -23
-46 -29 -27 -9 -29 -8 -29 17 0 97 74 187 99 120z"/>
<path d="M5840 5038 c-14 -5 -37 -21 -52 -35 l-28 -27 -6 33 -7 33 -68 -4
c-37 -2 -71 -6 -74 -10 -3 -3 2 -21 11 -40 15 -33 15 -41 -10 -163 -35 -171
-35 -175 8 -175 18 0 48 3 65 6 29 6 31 9 31 50 0 36 14 120 35 211 3 12 15
28 26 34 18 9 25 7 43 -15 l21 -26 33 20 c38 23 47 40 38 75 -8 32 -34 45 -66
33z"/>
<path d="M6200 5040 c-73 -13 -106 -48 -95 -101 4 -17 35 -64 70 -106 71 -85
85 -118 60 -142 -16 -15 -18 -14 -28 3 -59 95 -74 102 -118 60 -37 -36 -37
-60 3 -84 71 -43 167 -33 225 25 41 41 44 86 8 139 -30 44 -30 41 -6 75 31 43
35 74 14 100 -21 26 -81 40 -133 31z m91 -40 c24 -14 24 -41 0 -71 -19 -24
-19 -24 -41 -4 -37 34 -45 57 -24 72 22 16 39 16 65 3z"/>
<path d="M6580 5040 c-111 -20 -180 -109 -180 -232 0 -80 23 -126 75 -152 34
-17 45 -18 94 -8 61 13 131 54 131 77 0 19 1 19 -53 -5 -57 -25 -92 -18 -113
22 -18 35 -12 58 14 58 40 0 115 34 148 67 27 27 34 42 34 73 0 21 -3 46 -6
54 -13 33 -86 56 -144 46z m39 -62 c10 -28 -2 -84 -24 -108 -9 -10 -30 -23
-46 -29 -27 -9 -29 -8 -29 17 0 97 74 187 99 120z"/>
<path d="M7740 5040 c-111 -20 -180 -109 -180 -232 0 -80 23 -126 75 -152 34
-17 45 -18 94 -8 61 13 131 54 131 77 0 19 1 19 -53 -5 -57 -25 -92 -18 -113
22 -18 35 -12 58 14 58 40 0 115 34 148 67 27 27 34 42 34 73 0 21 -3 46 -6
54 -13 33 -86 56 -144 46z m39 -62 c10 -28 -2 -84 -24 -108 -9 -10 -30 -23
-46 -29 -27 -9 -29 -8 -29 17 0 97 74 187 99 120z"/>
<path d="M7950 4753 c-16 -20 -20 -36 -16 -58 9 -40 20 -49 62 -49 43 0 74 31
74 74 0 60 -81 83 -120 33z"/>
<path d="M2260 4195 c0 -11 81 -167 131 -252 452 -767 1127 -1368 1930 -1717
504 -219 1013 -330 1569 -343 694 -16 1312 116 1945 416 l129 62 -919 919
-920 920 -1932 0 c-1063 0 -1933 -2 -1933 -5z m1323 -575 c9 -18 22 -26 47
-28 19 -1 55 -5 80 -8 l45 -6 -62 -57 -61 -56 18 -82 c10 -46 16 -83 14 -83
-2 0 -33 18 -69 40 -36 22 -68 40 -70 40 -3 0 -34 -18 -69 -40 -35 -22 -66
-40 -69 -40 -3 0 3 37 13 83 l18 82 -60 55 c-59 52 -60 55 -37 61 13 4 47 7
75 8 28 1 56 7 62 14 6 6 23 43 38 82 l28 69 23 -54 c13 -30 29 -66 36 -80z
m750 0 c9 -18 22 -26 47 -28 19 -1 55 -5 80 -8 l45 -6 -62 -57 -61 -56 18 -82
c10 -46 16 -83 14 -83 -2 0 -33 18 -69 40 -36 22 -68 40 -70 40 -3 0 -34 -18
-69 -40 -35 -22 -66 -40 -69 -40 -3 0 3 37 13 83 l18 82 -60 55 c-59 52 -60
55 -37 61 13 4 47 7 75 8 28 1 56 7 62 14 6 6 23 43 38 82 l28 69 23 -54 c13
-30 29 -66 36 -80z m750 0 c9 -18 22 -26 47 -28 19 -1 55 -5 80 -8 l45 -6 -62
-57 -61 -56 18 -82 c10 -46 16 -83 13 -83 -3 0 -34 18 -69 40 -35 22 -66 40
-69 40 -3 0 -34 -18 -69 -40 -35 -22 -66 -40 -69 -40 -3 0 3 37 13 83 l18 82
-60 55 c-59 52 -60 55 -37 61 13 4 47 7 75 8 28 1 56 7 62 14 6 6 23 43 38 82
l28 69 23 -54 c13 -30 29 -66 36 -80z m750 0 c9 -18 22 -26 47 -28 19 -1 55
-5 80 -8 l45 -6 -62 -57 -61 -56 18 -82 c10 -46 16 -83 14 -83 -2 0 -33 18
-69 40 -36 22 -68 40 -70 40 -3 0 -34 -18 -69 -40 -35 -22 -66 -40 -69 -40 -3
0 3 37 13 83 l18 82 -60 55 c-59 52 -60 55 -37 61 13 4 47 7 75 8 28 1 56 7
62 14 6 6 23 43 38 82 l28 69 23 -54 c13 -30 29 -66 36 -80z"/>
<path d="M7256 3329 l872 -872 81 49 81 49 -822 822 -823 823 -130 0 -130 0
871 -871z"/>
<path d="M7674 3431 l769 -769 56 40 c31 23 64 48 74 56 17 15 -28 62 -695
729 l-713 713 -130 0 -130 0 769 -769z"/>
<path d="M8079 3546 l655 -655 69 61 69 61 -594 594 -593 593 -130 0 -130 0
654 -654z"/>
<path d="M8472 3673 l528 -528 51 50 c28 28 55 58 61 69 9 16 -48 77 -448 477
l-459 459 -130 0 -130 0 527 -527z"/>
<path d="M8470 4197 c0 -1 175 -177 389 -391 l388 -388 57 73 57 73 -318 318
-318 318 -127 0 c-71 0 -128 -1 -128 -3z"/>
<path d="M9225 3960 c132 -132 242 -236 246 -232 3 4 27 38 53 77 l46 70 -162
162 -163 163 -130 0 -130 0 240 -240z"/>
<path d="M9585 4120 l80 -80 37 72 c20 40 37 76 38 81 0 4 -53 7 -117 7 l-118
0 80 -80z"/>
</g>
</svg>
