<?xml version="1.0" encoding="UTF-8"?>
<svg width="64px" height="74px" viewBox="0 0 64 74" version="1.1" xmlns="http://www.w3.org/2000/svg" xmlns:xlink="http://www.w3.org/1999/xlink">
    <title>编组 4</title>
    <g id="页面-1" stroke="none" stroke-width="1" fill="none" fill-rule="evenodd">
        <g id="创建面试机经04" transform="translate(-676.000000, -209.000000)">
            <g id="编组-4" transform="translate(677.000000, 206.109671)">
                <path d="M32.5715033,22.4454194 C37.4039949,22.4454194 41.7789949,24.4041736 44.945872,27.5710507 C48.1127491,30.7379278 50.0715033,35.1129278 50.0715033,39.9454194 C50.0715033,46.3694028 46.6100117,51.9846263 41.4510834,55.0288042 C40.7007339,55.4715701 39.9201342,55.856607 39.1178525,56.1818433 C39.8898271,56.5651957 40.6281265,57.0155913 41.3233447,57.5280703 C44.9694571,60.2157961 47.3349593,64.540643 47.3349593,69.4181765 C47.3349593,70.0475932 47.0526959,70.5922456 46.60541,71.0749809 C45.9518537,71.7803347 44.9769776,72.3547415 43.8068863,72.8394092 C40.8523647,74.0632121 36.7090184,74.6547206 32.5715033,74.6547206 C28.4339882,74.6547206 24.290642,74.0632121 21.3361203,72.8394092 C20.1660291,72.3547415 19.191153,71.7803347 18.5375966,71.0749809 C18.0903108,70.5922456 17.8080474,70.0475932 17.8080474,69.4181765 C17.8080474,64.5405457 20.1736404,60.2156447 23.819542,57.5272432 C24.5147201,57.0146354 25.2529793,56.564081 26.0248337,56.1803213 C25.2217459,55.8553368 24.4415255,55.4705399 23.6915361,55.0280561 C18.5329192,51.9845406 15.0715033,46.3693383 15.0715033,39.9454194 C15.0715033,35.1129278 17.0302575,30.7379278 20.1971347,27.5710507 C23.3640118,24.4041736 27.7390118,22.4454194 32.5715033,22.4454194 Z" id="形状结合" stroke="#4A4A4A" stroke-width="3" fill="#FFFFFF"></path>
                <path d="M25.1669069,44.3850719 C26.337905,47.3173549 29.2041778,49.3891831 32.5543519,49.3891831 C35.9377162,49.3891831 38.8275435,47.2761005 39.9760998,44.2976696" id="路径" stroke="#4A4A4A" stroke-width="3" stroke-linecap="round" stroke-linejoin="round"></path>
                <g id="编组-2" transform="translate(23.071503, 32.104573)" fill="#4A4A4A">
                    <ellipse id="椭圆形" cx="2.5" cy="3.91087262" rx="2.5" ry="3.91087262"></ellipse>
                    <ellipse id="椭圆形备份" cx="16.0776661" cy="3.91087262" rx="2.5" ry="3.91087262"></ellipse>
                </g>
                <line x1="20.538621" y1="10.9890154" x2="20.538621" y2="20.1246366" id="路径-22" stroke="#4A4A4A" stroke-width="3" stroke-linecap="round" stroke-linejoin="round"></line>
                <line x1="5.5" y1="26.3340128" x2="5.5" y2="35.469634" id="路径-22备份" stroke="#4A4A4A" stroke-width="3" stroke-linecap="round" stroke-linejoin="round" transform="translate(5.500000, 30.901823) rotate(90.000000) translate(-5.500000, -30.901823) "></line>
                <line x1="10.0678106" y1="15.556826" x2="10.0678106" y2="24.6924472" id="路径-22备份-2" stroke="#4A4A4A" stroke-width="3" stroke-linecap="round" stroke-linejoin="round" transform="translate(10.067811, 20.124637) rotate(-225.000000) translate(-10.067811, -20.124637) "></line>
            </g>
        </g>
    </g>
</svg>
